<svg width="20" height="20" viewBox="0 -0.99 64 64" xml:space="preserve" xmlns="http://www.w3.org/2000/svg">
  <path d="M8.81 4.899c-2.688 1.76-3.608 5.657-2.057 8.706s6.861 7.772 9.55 6.013c2.688-1.761 1.735-9.338.184-12.387-1.553-3.048-4.99-4.092-7.677-2.332zM40.311.008c-3.312.175-6.146 3.002-6.333 6.314-.186 3.313 2.123 9.854 5.435 9.68 3.311-.175 6.37-7 6.557-10.313.184-3.312-2.349-5.855-5.659-5.681z" style="fill-rule:evenodd;clip-rule:evenodd;fill:#75a64b"/>
  <ellipse cx="32" cy="36.026" rx="32" ry="26" style="fill:#88c057"/>
  <path d="M32 46.026c-8.837 0-16-1.313-16 2s7.163 6 16 6c8.836 0 16-2.687 16-6s-7.164-2-16-2z" style="fill:#638c3f"/>
  <path d="M12 26.026a6 6 0 0 0 0 12 6 6 0 0 0 0-12zm40 0a6 6 0 0 0 0 12 6 6 0 0 0 0-12z" style="fill-rule:evenodd;clip-rule:evenodd;fill:#fff"/>
  <path d="M14 30.026a2 2 0 1 0 .001 4.001A2 2 0 0 0 14 30.026zm40 0a2 2 0 1 0 .001 4.001A2 2 0 0 0 54 30.026z" style="fill-rule:evenodd;clip-rule:evenodd;fill:#4d4d4d"/>
  <ellipse cx="32" cy="38.026" rx="14" ry="12" style="fill:#abf26d"/>
  <path d="M26 34.026c-1.104 0-2 1.791-2 4s.896 4 2 4 2-1.791 2-4-.896-4-2-4zm12 0c-1.104 0-2 1.791-2 4s.896 4 2 4 2-1.791 2-4-.896-4-2-4z" style="fill-rule:evenodd;clip-rule:evenodd;fill:#3f5928"/>
  <path d="M16 18.026H8a2 2 0 0 0 0 4h8a2 2 0 0 0 0-4zm40 0h-8a2 2 0 0 0 0 4h8a2 2 0 0 0 0-4z" style="fill-rule:evenodd;clip-rule:evenodd;fill:#638c3f"/>
  <g/>
  <g/>
  <g/>
  <g/>
  <g/>
  <g/>
  <g/>
  <g/>
  <g/>
  <g/>
  <g/>
  <g/>
  <g/>
  <g/>
  <g/>
</svg>
